/* XPM */
static char *_9e2df05e66a4b90d487fdf982fb4a3bKaJXC8jYAEEwCWuh[] = {
/* columns rows colors chars-per-pixel */
"100 100 46 1 ",
"  c #9EC454",
". c #A2C655",
"X c #A5C957",
"o c #A5C758",
"O c #A7C958",
"+ c #ACCC59",
"@ c #B1CF5C",
"# c #B6D256",
"$ c #B5D15D",
"% c #BAD45D",
"& c #BBD560",
"* c #BFD864",
"= c #BFD868",
"- c #C0D961",
"; c #C1D867",
": c #C3D96A",
"> c #C4DA6B",
", c #C3D96C",
"< c #C5DB6F",
"1 c #C6DB70",
"2 c #C7DC72",
"3 c #C7DC74",
"4 c #C8DD73",
"5 c #CADE77",
"6 c #CBDF79",
"7 c #CDDF7A",
"8 c #CCE07A",
"9 c #CFE17E",
"0 c #D0E17F",
"q c #D1E281",
"w c #D3E285",
"e c #D4E286",
"r c #D5E387",
"t c #D3E486",
"y c #D4E587",
"u c #D7E58B",
"i c #D9E58B",
"p c #D9E78F",
"a c #DBE790",
"s c #DCE791",
"d c #DAE891",
"f c #DDE893",
"g c #DDE894",
"h c #DFEA98",
"j c #E0EA98",
"k c #E3ED9C",
/* pixels */
"&&&&&&$@@@$$$$$%&&%$$$$&&&&&&&&&&&%$$$$$@@@$%&&&%%&&&**&&&&&&&&&&&&&&&&&&&&&&&&&&&&&&&&&&&&&&&&&**-&",
"&&&&&%%%%%%&&&&&&&&&&&&&&&&&&&&&&&&&&&&&%%%%%&&&&&&&&&&&&&&&&&&&&&&&&&&&&&&&&&&&&&&&&&&&&&&&&&&&&&&&",
"&&&&&&*--*&&&&&%&&%&&&%&&&&&&&&&&&%&&&&&*--*&&&&&&&&&&&&&&&&&&&&&&&&&&&&&&&&&&&&&&&&&&&&&&&&&&&&&&&&",
"&&&&&%&&-&&&&&&&&&&%&%&&&&&&&&&&&&&&&&&&&&-&%&&&&&&&&&&&&&&&&&&&&&&&&&&&&&&&&&&&&&&&&&&&&&&&&&&&&&&&",
"&&&&&&&&&&&&&&&&&&&&&&&&&&&&&&&&&&&&&%&&&%&&&&&&&&&&&&&&&&&&&&&&&&&&&&&&&&&&&&&%&&&&&%&%&&&&&&&&&&&&",
"&&&&&&&&&&&&&&&&&&&&&&&&&&&&&&&&&&&&&&&&&%&&&&&&&&&&&&&&&&&&&&&&&&&&&&&&&&&&&&&&&&&&%&&&%&&&&&&&&&&&",
"&&&&&&&&&&&&&&&&&&&&&&&&&&&&&&&&&&&&&&&%&&&&&&&&&&&&&&&&&&&&&&&&&&&&&&&&&&&&&&&&&&&&&&&&&&&&&&&&&&&&",
"&&&&&&&&&&&&&&&&&&&&&&&&&&&&&&&&&&%%&%$$$%&&&&&&&&&&&&&&&&&&&&&&&&&&&&&&&&&&&%$$$%&&&$$$%&&&&&&&&&&&",
"&&&&&&&&&&&&&&&&&&&&&&&&&&&&&&&&&&&&&$@+@$&&&&&&&&&&&&&&&&&&&&&&&&&&&&&&&&&&&$$++$%&$$++$%&&&&&&&&&&",
"&&&&&&&&&&&&&&&&&&&&&&&&&&&&&&&&&&&%$@+O+$$&&%&&&&&&&&&&&&&&&&&&&&&&&&&&&&&&&$++++$$$+O+@$&&&&&&&&&&",
"&&&&&&&&&&&&&&&&&&&&&&&&&&&&&&&&&&&%$+X.+@$&&%&&&&&&&&&&&&&&&&&&&&&&&&&&&&&&&$+XX+@$+OXX@$&&&&&&&&&&",
"&&&&&&&&&&&&&&&&&&&&&&&&&&&&&&&&&&$$++OO+$%&&%&&&&&&&&&&&&&&&&&&&&&&&&&&&&&&&$@+X++++XO+$%&&&&&&&&&&",
"&&&&&&&&&&&&&&&&&&&&&&&&&&&&&&&&&$@+OO++$$&&&&&&&&&&&&&&&&&&&&&&&&&&&&&&&&&&&&$$++XXX++$$%&&&&&&&&&&",
"&&&&&&&&&&&&&&&&&&&&&&&&&&&&&&&&&$+..O+$&&&&&&&&&&&&&&&&&&&&&&&&&&&&&&&&&&&&&&&%$+X.O+$&&%&&&&&&&&&&",
"&&&&&&&&&&&&&&&&&&&&&&&&&&&&&&&&&$+  X@&&&&&&&&&&&&&&&&&&&&&&&&&&&&&&&&&&&&&&&&&%@+++$&&&%&&&&&&&&&&",
"&&&&&&&&&&&&%&&&&&&&&&&&&&&&&&&&&$+  X@&-&&&&&&&&&&&&&&&&&&&&&&&&&&&&&&&&&&&&&&&&$@@$$&&&%&&&&&&&&&&",
"&&&&&&&&&&&&&%%&&&&&&&&&&&&&&&&&&$+..+$%&&&&&&&&&&&&&&&&&&&&&&&&&&&&&&&&&&&&&&&%&%$$%&&%&&&&&&&&&&&&",
"&&&&&&&&&&&%$$$$%%&&&&&&&&&&&&&&&$++++$%&&&&&&&&&&&&&&&&&&&&&&&&&&&&&&&&&&&&&&&&&&%&%&&&&&&&&&&&&&&&",
"&&&&&&&&&&&$++++$%&&&&&&&&&&&&&&&$$@@$$&&&&&&&&&&&&&&&&&&&&&&&&&&&&&&&&&&&&&&&&&&%&&&%&&&&&&&&&&&&&&",
"&&&&&&&&&&&$+XX+$%&&&&&&&&&&&&&&&&%$$$%&&&&&&&&&&&&&&&&&&&&&&&&&&&&&&&&&&&&&&&&&&&%%%&&&&&&&&&&&&&&&",
"&&&&&&&&&&&$+OX++$$&&&&&&&&&&&&%&&&&%&&&&&&&&&&&&&&&&&&&&&&&&&&&&&&&&&&&&&&&&&&&&&&&&&&&&&&&&&&&&&&&",
"&&&&&&&&&&&$$+++++@$%&&%&&&&&&&&&&&&&&&&&&&&&&&&&&&&&&&&&&&&&&&&&&&&&&&&&&&&&&&&&&&&&&&&&&&&&&&&&&&&",
"&&&&&&&&&&&&%$@+Xo+@%&&%&&&&&&&&&&&%&%&&&&&&&&&&&&&&&&&&&&&&&&&&&&&&&&&&&&&&&&&&&&&&&&&&&&&&&&&&&&&&",
"&&&&&&&&&&&&&&$+. X+%&&%&&&%&&&$$$$%&&&&&&&&&&&&&&&&&&&&&&&&&&&&&&&&&&&&&&&&&&&&&&&&&&&&&&&&&&&&&&&&",
"&&&&&&&&&&&&-&$+. .+%&&%&&&&&&$@++@$&&&&&&&&&&&&&&&&&&&&&&&&&&&&&&&&&&&&&&&&&&&&&&&&&&&&&&&&&&&&&&&&",
"&&&&&&&&&&&&&&$+. X+%&&%&&&&&&$+XX+$&&&&&&&&&&&&&&&&&&&&&&&&&&&&&&&&&&&&&&&&&&&&&&&&&&&&&&&&&&&&&&&&",
"&&&&&&&&&&&&&&$+Oo+@%&&%&&&&&$+OXX+$&&&&&&&&&&&&&&&&&&&&&&&&%&%&&&%&%&&&&&&&&&&&&&&&&&&&&&&&&&&&&&&&",
"&&&&&&&&&&&&&&$$++@$%&&%&&&$$++O++@$&&&&&&&&&&&&&&&&&&&&&&&%&&&&&&&&&%&&&&&&&&&&&&&&&&&&&&&&&&&&&&&&",
"&&&&&&&&&&&&&&&$$$$$&&&&&&%$++X++$$&&&&&&&&&&&&&&&&&&&&&&&&&&%&&&&&%&&&&&&&&&&&&&&&&&&&&&&&&&&&&&&&&",
"&&&&&&&&&&&&&&&&&&&&&&&&&&%@+..+$&&&&&&&&&&&&&&&&&&&&&&&&&&$$$%&&&%$$$&&&&&&&&&&&&&&&&&&&&&&&&&&&&&&",
"&&&&&&&&&&&&&&&&&&&%&&&&&&%+o  +$&-&&&&&&&&&&&&&&&&&&&&&&&$$@+$$&$$+@$$&&&&&&&&&&&&&&&&&&&&&&&&&&&&&",
"&&&&&&&&&&&&&&&%&&&&&&&&&&%@X .+$&&&&&&&&&&&&&&&&&&&&&&&&%$++++$$$++++$%&&&&&&&&&&&&&&&&&&&&&&&&&&&&",
"&&&&&&&&&&&&&&&&&&&&&&&&&&%@+..+$&&&&&&&&&&&&&&&&&&&&&&&&%$+XX+@$@+XX+$%&&&&&&&&&&&&&&&&&&&&&&&&&&&&",
"&&&&&&&&&&&&&&&&&&&&&&&&&&%$+++@$&&&&&&&&&&&&&&&&&&&&&&&&%$@+X++++OX+@$%&&&&&&&&&&&&&&&&&&&&&&&&&&&&",
"&&&&&&&&&&&&&&&&&&&&&&&&&&&$$$$$%&&&&&&&&&&&&&&&&&&&&&&&&&&$$++XXX++$$&&&&&&&&&&&&&&&&&&&&&&&&&&&&&&",
"&&&&&&&&&&&&&&&&&&&&&&&&&&&&%%%&&&&&&&&&&&&&&&&&&&&&&&&&&&&&&$+X.X+$&&&&&&&&&&&&&&&&&&&&&&&&&&&&&&&&",
"&&&&&&&&&&&&&&&&&&&&&&&&&&&&%&&%&&&&&&&&&&&&&&&&&&&&&&&&&&&&&%$+O+$%&&&&&&&&&&&&&&&&&&&&&&&&&&&&&&&&",
"&&&&&&&&&&&&&&&&&&&&&&&&&&&&&&&&&&&&&&&&&&&&&&&&&&&&&&&&&&&&&&$$@$$&&&&&&&&&&&&&&&&&&&&&&&&&&&&&&&&&",
"&&&&&&&&&&&&&&&&&&&&&&&&&&&&&%%&&&&&&&&&&&&&&&&&&&&&&&&&&&&&%&%$$$%&%&&&&&&&&&&&&&&&&&&&&&&&&&&&&&&&",
"&&&&&&&&&&&&&&&&&&&&&&&&&&&&&&&&&&&&&&&&&&&&&&&&&&&&&&&&&&&&&&&%%%&&&&&&&&&&&&&&&&&&&&&&&&&&&&&&&&&&",
"&&&&&&&&&&&&&&&&&&&&&&&&&&&&&&&&&&&&&&&&&&&&&&&&&&&&&&&&&&&&&&%&&&%&&&&&&&&&&&&&&&&&&&&&&&&&&&&&&&&&",
"&&&&&&&&&&&&&&&&&&&&&&&&&&&&&&&&&&&&&&&&&&&&&&&&&&&&&&&&&&&&&&&%%%&&&&&&&&&&&&&&&&&&&&&&&&&&&&&&&&&&",
"&&&&&&&&&&&&&&&&&&&&&&&&&&&&&&&&&&&&&&&&&&&&&&&&&&&&&&&&&&&&&&&&&&&&&&&&&&&&&&&&&&&&&&&&&&&&&&&&&&&&",
"&&&&&&&&&&&&&&&&&&&&&&&&&&&&&&&&&&&&&&&&&&&&&&&&&&&&&&&&&&&&&&&&&&&&&&&&&&&&&&&&&&&&&&&&&&&&&&&&&&&&",
"&&&&&&&&&&&&&&&&&&&&&&&&&&&&&&&&&&&&&&&&&&&&&&&&&&&&&&&&&&&&&&&&&&&&&&&&&&&&&&&&&&&&&&&&&&&&&&&&&&&&",
"&&&&&&&&&&&&&&&&&&&&&&&&&&&&&&&&&&&&&&&&&&&&&&&&&&&&&&&&&&&&&&&&&&&&&&&&&&&&&&&&&&&&&&&&&&&&&&&&&&&&",
"&&&&&&&&&&&&&&&&&&&&&&&&&&&&&&&&&&&&&&&&&&&&&&&&&&&&&&&&&&&&&&&&&&&&&&&&&&&&&&&&&&&&&&&&&&&&&&&&&&&&",
"&&&&&&&&&&&&&&&&&&&&&&&&&&&&&&&&&&&&&&&&&&&&&&&&&&&&&&&&&&&&&&&&&&&&&&&&&&&&&&&&&&&&&&&&&&&&&&&&&&&&",
"&&&&&&&&&&&&&&&&&&&&&&&&&&&&&&&&&&&&&&&&&&&&&&&&&&&&&&&&&&&&&&&&&&&&&&&&&&&&&&&&&&&&&&&&&&&&&&&&&&&&",
"&&&&&&&&&&&&&&&&&&&&&&&&&&&&&&&&&&&&&&&&&&&&&&&&&&&&&&&&&&&&&&&&&&&&&&&&&&&&&&&&&&&&&&&&&&&&&&&&&&&&",
"&&&&&&&&&&&&&&&&&&&&&&&&&&&&&&&&&&&&&&&&&&&&&&&&&&&&&&&&&&&&&&&&&&&&&&&&&&&&&&&&&&&&&&&&&&&&&&&&&&&&",
"&&&&&&&&&&&&&&&&&&&&&&&&&&&&&&&&&&&&&&&&&&&&&&&&&&&&&&&&&&&&&&&&&&&&&&&&&&&&&&&&&&&&&&&&&&&&&&&&&&&&",
"&&&&&&&&&&&&&&&&&&&&&&&&&&&&&&&&&&&&&&&&&&&&&&&&&&&&&&&&&&&&&&&&&&&&&&&&&&&&&&&&&&&&&&&&&&&&&&&&&&&&",
"&&&&&&&&&&&&&&&&&&&&&&&&&&&&&&&&&&&&&&&&&&&&&&&&&&&&&&&&&&&&&&&&&&&&&&&&&&&&&&&&&&&&&&&&&&&&&&&&&&&&",
"&&&&&&&&&&&&&&&&&&&&&&&&&&&&&&&&&&&&&&&&&&&&&&&&&&&&&&&&&&&&&&&&&&&&&&&&&&&&&&&&&&&&%%%%%&%%%%%&&&&&",
"&&&&&&&&&&&&&&&&&&&&&&&&&&&&&&&&&&&&&&&&&&&&&&&&&&&&&&&&&&&&&&&&&&&&&&&&&&&&&&&&&&&%%%%%%%%%%$%%&&&&",
"&&&&&&&&&&&&&&&&&&&&&&&&&&&&&&&&&&&&&&&&&&&&&&&&&&&&&&&&&&&&&&&&&&&&&&&&&&&&&&&&&&&&%%%%%%%%%%%%&&&&",
"&&&&&&&&&&&&&&&&&&&&&&&&&&&&&&&&&&&&&&&&&&&&&&&&&&&&&&&&&&&&&&&&&&&&&&&&&&&&&&&&&&&&&**&&&&&**&&&&&&",
"&&&&&&&&&&&&&&&&&&&&&&&&&&&&&&&&&&&&&&&&&&&&&&&&&&&&&&&&&&&&&&&&&&&&&&&&&&&&&&&&%%%&:35<=&&,45<;&%%&",
"&&&&&&&&&&&&&&&&&&&&&&&&&&&&&&&&&&&&&&&&&&&&&&&&&&&&&&&&&&&&&&&&&&&&&&&&&&&&&&&&%%%;5qe9<*:6wt6:%%%%",
"&&&&&&&&&&&&&&&&&&&&&&%%%%&&&&&&&&&&&&&&&&&&&&&&&&&&&&&&&&&&&&&&&&&&&&&&&&&&&&&&%%%=6use6<4qpp9>%%%%",
"&&&&&&&&&&&&&&&&&&&&&%%$%%%&&&&&&&&&&&&&&&&&&&&&&&&&&&&&&&&&&&&&&&&&&&&&&&&&&&&&%%%;5wpuq9qupu6:%%%%",
"&&&&&&&&&&&&&&&&&&&&&%%%$%%&&&&&&&&&&&&&&&&&&&&&&&&&&&&&&&&&&&&&&&&&&&&&&&&&&&&&%%%&:5qeuiuuq6<*%%%%",
"&&&&&&&&&&&&&&&&&&&%%&&&&&&&&&&&&&&&&&&&&&&&&&&&&&&&&&&&&&&&&&&&&&&&&&&&&&&&&&&&&%%&&*<9pfpq5:&&&%%&",
"&&&&&&&&&&&&&&&&&%%%%*:1<:&%%%&&&&&&&&&&&&&&&&&&&&&&&&&&&&&&&&&&&&&&&&&&&&&&&&&&&&&%%%&5wpu7:%%%&&&&",
"&&&&&&&&&&&&&&&&&%%#&,9q95=%%%&&&&&&&&&&&&&&&&&&&&&&&&&&&&&&&&&&&&&&&&&&&&&&&&&&&&&%%%%,607<&%%%&&&&",
"&&&&&&&&&&&&&&&&&%%%*5uau7:%%%&&&&&&&&&&&&&&&&&&&&&&&&&&&&&&&&&&&&&&&&&&&&&&&&&&&&&%%%%&:,:*%%%%&&&&",
"&&&&&&&&%%%%%%%%&&&=2qpfu6:%%%&&&&&&&&&&&&&&&&&&&&&&&&&&&&&&&&&&&&&&&&&&&&&&&&&&&&&&&&&&&&&&%&&&&&&&",
"&&&&&&&&%%%%%%%%%&:5quue91*%%%&&&&&&&&&&&&&&&&&&&&&&&&&&&&&&&&&&&&&&&&&&&&&&&&&&&&&&&&&%%%%%%%%&&&&&",
"&&&&&&&&&%%%%%%%%=5yppq5:&&%%%&&&&&&&&&&&&&&&&&&&&&&&&&&&&&&&&&&&&&&&&&&&&&&&&&&&&&&&&&%%%%%%%&&&&&&",
"&&&&&%%&&:::=&%#%:9fja9:%%%&&&&&&&&&&&&&&&&&&&&&&&&&&&&&&&&&&&&&&&&&&&&&&&&&&&&&&&&&&&&&&%&&&&&&&&&&",
"&&&&%%%&:5982*###:qgkf7*##%&&&&&&&&&&&&&&&&&&&&&&&&&&&&&&&&&&&&&&&&&&&&&&&&&&&&&&&&&&&&&&&&&&&&&&&&&",
"&&&&%$$&<quu9,%##:qgkf8*##%&&%%%&&&&&&&&&&&&&&&&&&&&&&&&&&&&&&&&&&&&&&&&&&&&&&&&&&&&&&&&&&&&&&&&&&&&",
"&&&&%$$&<qpde5*%$:qgkf9:%%%&%%%%%%%%&&&&&&&&&&&&&&&&&&&&&&&&&&&&&&&&&&&&&&&&&&&&&&&&&&&&&&&&&&&&&&&&",
"&&&&%%%&,6yuuq5:&:qgkf9:%%%&&&%%%%%%&&&&&&&&&&&&&&&&&&&&&&&&&&&&&&&&&&&&&&&&&&&&&&&&&&&&&&&&&&&&&&&&",
"&&&&&%%&*:40upt5,:9djf9:%%%&&&%%%%%%&&&&&&&&&&&&&&&&&&&&&&&&&&&&&&&&&&&&&&&&&&&&&&&&&&&&&&&&&&&&&&&&",
"&&&&&&&%%%&2egfq2:6ufu7;%%%&&&&*=;&&%%%&&&&&&&&&&&&&&&&&&&&&&&%%%%%&%%%%%&&&&&&&&&&&&&&&&&&&&&&&&&&&",
"&&&&&&&%%#%,whju5:<9wq2*%%%%%&:155<&%%$%&&&&&&&&&&&&&&&&&&&&&%%%%%%%%%%$%%&&&&&&&&&&&&&&&&&&&&&&&&&&",
"&&&&&&&%%#%:wjjp5;*,21:&%%%%%&<9uy8:%#%%&&&&&&&&&&&&&&&&&&&&&&%%%%%%%%%%%%&&&&&&&&&&&&&&&&&&&&&&&&&&",
"&&&&&&&%%#%<whjp5*%%&&&&&&%$$&1qaat3*%%%&&&&&&&&&&&&&&&&&&&&&&&**&&&&&**&&&&&&&&&&&&&&&&&&&&&&&&&&&&",
"&&&&&&&%$%&1ejkp5&##%%%&&&%$$&<9upu92:&&%%%&&&&&&&&&&&&&&&%%%&:25<;&*<44<*&%%&&&&&&&&&&&&&&&&&&&&&&&",
"&&&&&&&%$%&1ejkp5&###%%%&&&%%&=<6quuq6:&%%%&&&&&&&&&&&&&&&%%%=5qe9<*:7wt6:%%%%&&&&&&&&&&&&&&&&&&&&&&",
"&&&&&&&%$%&<qggu5&##$%%&&&&%%%&&:5effe2&%%%&&&&&&&&&&&&&&&%%%:6iae5<5qpp9,%%%%&&&&&&&&&&&&&&&&&&&&&&",
"&&&&&&&%%%&,7euq2&%%%&&&&&&&&%%#%<wgjp5&%%%&&&&&&&&&&&&&&&%%%=5epuq9qupu6:%%%%&&&&&&&&&&&&&&&&&&&&&&",
"&&&&&&&&%%&=1572:&%%&&&&&%&&&%%#%,wjkp6&%%%%%%&&&&&&&&&&&&%%%&,5qeuiuyq7<*%%%%&&&&&&&&&&&&&&&&&&&&&&",
"&&&&&&&&&%%&*::;*&%%&&&&&%%%&%%#%<whjp5&%%%%&%&&&&&&&&&&&&&%%&&=20pfpq4;&&&%%&&&&&&&&&&&&&&&&&&&&&&&",
"&&&&&&&&&&%%%%%%%&&&&&&&&&&&&%%%&1ejjp5&%%%%&&&&&&&&&&&&&&&&&%%%*5wpu6:%%%&&&&&&&&&&&&&&&&&&&&&&&&&&",
"&&&&&&&&&&&%%%%%%&&&&&&&&&&&&%%%&1ejkp6&%%%&&&&&&&&&&&&&&&&&&%%#%,607<&%%%&&&&&&&&&&&&&&&&&&&&&&&&&&",
"&&&&&&&&&&&%%%%%%&&&&&&&&&&&&%%%&<wgju5&%%%&&&&&&&&&&&&&&&&&&%%%%&:<:*&%%%&&&&&&&&&&&&&&&&&&&&&&&&&&",
"&&&&&&&&&&&&&&&&&&&&&&&&&&&&&%%%&,9upq2&$$%&&&&&&&&&&&&&&&&&&&&&&&&&&&&&&&&&&&&&&&&&&&&&&&&&&&&&&&&&",
"&&&&&&&&&&&&&&&&&&&&&&&&&&&&&%%%&:5995:&%%%&&&&&&&&&&&&&&&&&&&&&&%%%$%%&&&&&&&&&&&&&&&&&&&&&&&&&&&&&",
"&&&&&&&&&&&&&&&&&&&&&&&&&&&&&&%%&&::,:*&%%&&&&&&&&&&&&&&&&&&&&&&&%%%%%%&&&&&&&&&&&&&&&&&&&&&&&&&&&&&",
"&&&&&&&&&&&&&&&&&&&&&&&&&&&&&&&&&&&&&&&&&&&&&&&&&&&&&&&&&&&&&&&&&&&%%&&&&&&&&&&&&&&&&&&&&&&&&&&&&&&&",
"&&&&&&&&&&&&&&&&&&&&&&&&&&&&&&&&&%%%%%%&&&&&&&&&&&&&&&&&&&&&&&&&&&&&&&&&&&&&&&&&&&&&&&&&&&&&&&&&&&&&",
"&&&&&&&&&&&&&&&&&&&&&&&&&&&&&&&&&%%%%%%&&&&&&&&&&&&&&&&&&&&&&&&&&&&&&&&&&&&&&&&&&&&&&&&&&&&&&&&&&&&&",
"&&&&&&&&&&&&&&&&&&&&&&&&&&&&&&&&&&%%%%&&&&&&&&&&&&&&&&&&&&&&&&&&&&&&&&&&&&&&&&&&&&&&&&&&&&&&&&&&&&&&",
"&&&&&&&&&&&&&&&&&&&&&&&&&&&&&&&&&&&&&&&&&&&&&&&&&&&&&&&&&&&&&&&&&&&&&&&&&&&&&&&&&&&&&&&&&&&&&&&&&&&&",
"&&&&&&&&&&&&&&&&&&&&&&&&&&&&&&&&&&&&&&&&&&&&&&&&&&&&&&&&&&&&&&&&&&&&&&&&&&&&&&&&&&&&&&&&&&&&&&&&&&&&",
"&&&&&&&&&&&&&&&&&&&&&&&&&&&&&&&&&&&&&&&&&&&&&&&&&&&&&&&&&&&&&&&&&&&&&&&&&&&&&&&&&&&&&&&&&&&&&&&&&&&&",
"&&&&&&&&&&&&&&&&&&&&&&&&&&&&&&&&&&&&&&&&&&&&&&&&&&&&&&&&&&&&&&&&&&&&&&&&&&&&&&&&&&&&&&&&&&&&&&&&&&&&"
};
